<?xml version="1.0" encoding="utf-8"?>
<!-- Generator: Adobe Illustrator 25.2.0, SVG Export Plug-In . SVG Version: 6.00 Build 0)  -->
<svg version="1.1" id="Capa_1" xmlns="http://www.w3.org/2000/svg" xmlns:xlink="http://www.w3.org/1999/xlink" x="0px" y="0px"
	 viewBox="0 0 32 32" style="enable-background:new 0 0 32 32;" xml:space="preserve">
<style type="text/css">
	.st0{fill:#3F628C;}
	.st1{fill:#41B9B6;}
	.st2{fill:#55BEC0;}
</style>
<g>
	<g>
		<path class="st0" d="M15.93,3.05c2.38,0.05,4.79,1.04,6.76,3.05c1.39,1.42,2.28,3.12,2.67,5.07c0.4,2.03,0.18,4-0.63,5.91
			c-0.53,1.25-1.24,2.4-2.05,3.48c-1.29,1.74-2.67,3.41-4.06,5.07c-0.9,1.07-1.8,2.12-2.71,3.17c-0.28,0.32-0.57,0.32-0.87-0.03
			c-0.88-1.02-1.75-2.05-2.62-3.08c-1.17-1.38-2.31-2.78-3.41-4.21c-0.74-0.97-1.47-1.94-2.07-3.01c-0.68-1.21-1.18-2.49-1.39-3.87
			c-0.37-2.4,0.08-4.65,1.34-6.71c1.32-2.16,3.21-3.61,5.61-4.39C13.48,3.19,14.48,3.05,15.93,3.05z M6.38,12.85
			c0.01,0.71,0.04,1.21,0.12,1.69c0.22,1.27,0.69,2.44,1.32,3.56c0.59,1.04,1.31,1.99,2.04,2.94c1.33,1.73,2.73,3.4,4.14,5.07
			c0.47,0.55,0.94,1.09,1.41,1.64c0.05,0.05,0.08,0.11,0.15,0.02c0.66-0.79,1.34-1.57,2-2.36c1.47-1.74,2.92-3.49,4.28-5.32
			c0.78-1.05,1.48-2.14,1.99-3.35c0.74-1.75,0.96-3.56,0.58-5.43c-0.39-1.91-1.29-3.55-2.73-4.87c-2.14-1.96-4.68-2.74-7.55-2.34
			c-2.21,0.31-4.06,1.35-5.53,3.04C7.14,8.84,6.41,10.83,6.38,12.85z"/>
		<path class="st1" d="M15.48,20.89c-4.31,0-7.84-3.52-7.77-7.95c0.07-4.18,3.59-7.79,8.11-7.61c4.04,0.16,7.47,3.45,7.46,7.83
			C23.26,17.5,19.72,20.9,15.48,20.89z M21.01,13.13c0-0.94,0-1.89,0-2.83c0-0.24-0.1-0.41-0.31-0.53c-1.63-0.93-3.27-1.87-4.9-2.81
			c-0.21-0.12-0.4-0.13-0.61,0c-1.63,0.94-3.27,1.88-4.91,2.82c-0.2,0.12-0.3,0.28-0.3,0.52c0,1.88,0,3.76,0,5.64
			c0,0.24,0.09,0.4,0.3,0.52c1.64,0.94,3.28,1.88,4.92,2.83c0.21,0.12,0.39,0.12,0.6,0c0.33-0.19,0.66-0.38,0.99-0.57
			c1.3-0.75,2.61-1.5,3.91-2.24c0.21-0.12,0.32-0.29,0.32-0.54C21,14.99,21.01,14.06,21.01,13.13z"/>
		<path class="st0" d="M21.01,13.13c0,0.93,0,1.87,0,2.8c0,0.25-0.11,0.42-0.32,0.54c-1.3,0.75-2.61,1.49-3.91,2.24
			c-0.33,0.19-0.66,0.37-0.99,0.57c-0.2,0.12-0.39,0.12-0.6,0c-1.64-0.94-3.28-1.88-4.92-2.83c-0.2-0.12-0.3-0.28-0.3-0.52
			c0-1.88,0-3.76,0-5.64c0-0.24,0.1-0.4,0.3-0.52c1.64-0.94,3.27-1.88,4.91-2.82c0.21-0.12,0.4-0.12,0.61,0
			c1.63,0.94,3.26,1.88,4.9,2.81c0.21,0.12,0.31,0.29,0.31,0.53C21.01,11.24,21.01,12.18,21.01,13.13z M15.97,18.07
			c0.04-0.02,0.06-0.03,0.08-0.04c1.3-0.75,2.61-1.5,3.91-2.24c0.08-0.05,0.1-0.11,0.1-0.19c0-1.49,0-2.98,0-4.47
			c0-0.04,0-0.08,0-0.13c-0.04,0.01-0.06,0.02-0.07,0.03c-1.31,0.64-2.61,1.28-3.92,1.91c-0.09,0.05-0.09,0.11-0.09,0.19
			c0,1.6,0,3.2,0,4.8C15.97,17.96,15.97,18,15.97,18.07z M15.01,18.07c0-0.04,0.01-0.05,0.01-0.07c0-1.64,0-3.28,0-4.92
			c0-0.09-0.04-0.12-0.11-0.15c-0.32-0.15-0.63-0.3-0.94-0.46c-0.15-0.07-0.15-0.07-0.15,0.09c0,0.72,0,1.43,0,2.15
			c0,0.46-0.33,0.67-0.75,0.48c-0.42-0.19-0.84-0.4-1.26-0.58c-0.3-0.13-0.42-0.32-0.41-0.65c0.02-0.87,0.01-1.75,0-2.62
			c0-0.06,0.02-0.12-0.05-0.15c-0.13-0.06-0.27-0.12-0.41-0.19c0,0.07,0,0.12,0,0.16c0,1.48,0,2.95,0,4.43
			c0,0.11,0.03,0.17,0.13,0.23c1.18,0.67,2.36,1.35,3.54,2.03C14.74,17.91,14.87,17.99,15.01,18.07z M19.49,10.17
			c-0.4-0.23-0.81-0.46-1.2-0.69c-0.1-0.06-0.17-0.06-0.27,0c-1.18,0.68-2.36,1.36-3.53,2.04c-0.04,0.02-0.08,0.03-0.1,0.08
			c0.34,0.16,0.67,0.33,1.01,0.49c0.08,0.04,0.14,0.03,0.22-0.01c1.26-0.62,2.52-1.23,3.78-1.85
			C19.43,10.23,19.47,10.22,19.49,10.17z M12.89,10.88c0.12,0.06,0.21,0.1,0.29,0.15c0.1,0.06,0.17,0.05,0.27-0.01
			c1.03-0.6,2.05-1.19,3.08-1.78c0.22-0.12,0.43-0.25,0.66-0.39c-0.07-0.04-0.12-0.06-0.16-0.1c-0.14-0.11-0.26-0.1-0.41-0.01
			c-0.86,0.5-1.72,0.98-2.58,1.47C13.67,10.44,13.3,10.65,12.89,10.88z M15.87,8.1c-0.09-0.05-0.16-0.08-0.22-0.13
			c-0.1-0.08-0.19-0.07-0.3,0c-0.71,0.41-1.42,0.82-2.13,1.22c-0.57,0.33-1.15,0.66-1.74,1c0.12,0.06,0.22,0.1,0.32,0.16
			c0.05,0.03,0.09,0.01,0.14-0.01C13.24,9.59,14.54,8.85,15.87,8.1z M12.35,11.67c0,0.7,0,1.38,0,2.06c0,0.05,0.02,0.08,0.07,0.1
			c0.14,0.06,0.28,0.13,0.42,0.2c0.01-0.02,0.02-0.03,0.02-0.03c0-0.67,0-1.33,0-2c0-0.05-0.01-0.09-0.06-0.11
			C12.66,11.82,12.52,11.75,12.35,11.67z"/>
		<path class="st2" d="M12.89,10.88c0.41-0.23,0.78-0.44,1.16-0.66c0.86-0.49,1.72-0.97,2.58-1.47c0.15-0.09,0.27-0.1,0.41,0.01
			c0.04,0.03,0.09,0.06,0.16,0.1c-0.23,0.13-0.44,0.26-0.66,0.39c-1.03,0.59-2.06,1.19-3.08,1.78c-0.1,0.06-0.17,0.07-0.27,0.01
			C13.1,10.97,13.01,10.94,12.89,10.88z"/>
		<path class="st2" d="M12.35,11.67c0.16,0.08,0.31,0.15,0.45,0.22c0.05,0.02,0.06,0.06,0.06,0.11c0,0.67,0,1.33,0,2
			c0,0.01-0.01,0.02-0.02,0.03c-0.14-0.07-0.28-0.13-0.42-0.2c-0.05-0.02-0.07-0.05-0.07-0.1C12.35,13.05,12.35,12.37,12.35,11.67z"
			/>
	</g>
</g>
</svg>
